# xmcd
#
# Track frame offsets:
#	150
#	19402
#	36378
#	47295
#	58330
#	73638
#	87249
#	101441
#	110079
#	125298
#	146327
#	161143
#
# Disc length: 2263 seconds
#
# Revision: 0
# Processed by: cddbd v1.5.2PL0 Copyright (c) Steve Scherf et al.
# Submitted via: dBpowerAMP V4.0
#
DISCID=a708d50c
DTITLE=Richard Hawley - Richard Hawley
DYEAR=2001
DGENRE=Blues
TTITLE0=Coming Home
TTITLE1=Bang To Rights
TTITLE2=Sunlight
TTITLE3=Caravan
TTITLE4=Naked In Pitsmoor
TTITLE5=Time Has Made A Change
TTITLE6=Happy Families
TTITLE7=Caned
TTITLE8=Cheap Spanish Whine
TTITLE9=Sick Pay
TTITLE10=Troublesome Waters
TTITLE11=Aran Loop
EXTD=
EXTT0=
EXTT1=
EXTT2=
EXTT3=
EXTT4=
EXTT5=
EXTT6=
EXTT7=
EXTT8=
EXTT9=
EXTT10=
EXTT11=
PLAYORDER=
